<svg xmlns="http://www.w3.org/2000/svg" width="86" height="26" fill="none"><path fill="#C41721" d="m27.44 0-2.88 2.88V0h-1.1C21.62 0 20.01.87 19 2.22A5.56 5.56 0 0 0 14.55 0h-1.11v2.88L10.56 0H0c2.74 6.84 2.27 5.6 2.76 7.1l.6.15a7.43 7.43 0 0 1 5.63 7.21v1.12h1.1c2.5 0 4.85.94 6.65 2.65 1.48 4 .99 2.51 2.26 6.96 1.27-4.45.78-2.96 2.26-6.96a9.57 9.57 0 0 1 6.64-2.65h1.11v-1.12a7.44 7.44 0 0 1 5.53-7.18l.49-.13C35.8 5.59 35.15 7.1 38 0H27.44ZM15.66 2.42a3.33 3.33 0 0 1 2.23 3.13h2.22c0-1.45.93-2.68 2.23-3.13V5.4L19 17.09 15.66 5.41v-3ZM4.5 5.26 3.29 2.23h6.35l3.56 3.55-2.62 5.24A9.65 9.65 0 0 0 4.5 5.26Zm7.34 8.22 2.43-4.86 1.8 6.34a11.73 11.73 0 0 0-4.23-1.48Zm11.9-4.86 2.42 4.86c-1.5.22-2.94.72-4.24 1.48l1.81-6.34Zm9.82-3.51-.08.16a9.68 9.68 0 0 0-6.06 5.75L24.8 5.78l3.56-3.55h6.35L33.56 5.1Z"/><path fill="#fff" d="M60.2 6.43v-.04h-4.14v.04c.53.22.85.62.85 1.32v3.01h-4.96v-3c0-.7.32-1.1.85-1.33v-.04h-4.14v.04c.52.22.84.62.84 1.32l.02 8.48c0 .7-.32 1.1-.85 1.33v.04h4.15v-.04c-.53-.22-.85-.62-.85-1.32v-3.19h4.94v3.18c0 .7-.32 1.1-.85 1.33v.04h4.15v-.04c-.53-.22-.85-.62-.85-1.32V7.74c0-.7.32-1.1.85-1.32Zm5.08 11.37c2.51 0 4.34-1.7 4.34-4.2s-1.83-4.21-4.34-4.21c-2.54 0-4.37 1.7-4.37 4.2s1.83 4.21 4.37 4.21Zm0-2.01c-1.18 0-2.02-.9-2.02-2.2 0-1.3.84-2.19 2.02-2.19 1.17 0 2 .9 2 2.2 0 1.3-.83 2.19-2 2.19Zm9.9-6.4c-.82 0-1.5.4-1.96.99-.27-.64-.93-1-1.76-1-.35 0-.74.05-1.17.21v.04c.51.22.74.65.74 1.26l.01 5.4c0 .62-.22 1.05-.73 1.27v.04h3.84v-.04c-.53-.22-.75-.65-.75-1.26l-.02-3.59c.3-.64.88-1.1 1.63-1.1.88 0 1.73.67 1.71 1.97l.07.02c.43-.63.6-1.3.6-1.88 0-1.3-.9-2.33-2.22-2.33Zm7.74 0c-.81 0-1.49.4-1.95.99-.27-.64-.93-1-1.76-1-.35 0-.74.05-1.17.21v.04c.51.22.74.65.74 1.26l.01 5.4c0 .62-.22 1.05-.73 1.27v.04h3.84v-.04c-.53-.22-.75-.65-.75-1.26l-.02-3.59c.3-.64.88-1.1 1.63-1.1.88 0 1.73.67 1.71 1.97l.07.02c.43-.63.6-1.3.6-1.88 0-1.3-.9-2.33-2.22-2.33Z"/></svg>