<svg xmlns="http://www.w3.org/2000/svg" width="38" height="26" fill="none"><path fill="#C41721" d="m27.44.4-2.88 2.88V.41h-1.1c-1.83 0-3.44.87-4.46 2.22A5.56 5.56 0 0 0 14.55.4h-1.11v2.87L10.56.41H0C2.74 7.25 2.27 6 2.76 7.5l.6.14a7.43 7.43 0 0 1 5.63 7.22v1.11h1.1c2.5 0 4.85.94 6.65 2.66 1.48 4 .99 2.51 2.26 6.95 1.27-4.44.78-2.96 2.26-6.95a9.57 9.57 0 0 1 6.64-2.66h1.11v-1.11a7.44 7.44 0 0 1 5.53-7.19l.49-.13C35.8 6 35.15 7.52 38 .41H27.44ZM15.66 2.83a3.33 3.33 0 0 1 2.23 3.13h2.22c0-1.44.93-2.67 2.23-3.13v3L19 17.48 15.66 5.81V2.82ZM4.5 5.67 3.29 2.63h6.35l3.56 3.56-2.62 5.23A9.65 9.65 0 0 0 4.5 5.67Zm7.34 8.21 2.43-4.86 1.8 6.35a11.73 11.73 0 0 0-4.23-1.49Zm11.9-4.86 2.42 4.86c-1.5.22-2.94.73-4.24 1.49l1.81-6.35Zm9.82-3.5-.08.15a9.68 9.68 0 0 0-6.06 5.76L24.8 6.19l3.56-3.56h6.35l-1.15 2.88Z"/></svg>